<svg xmlns="http://www.w3.org/2000/svg" viewBox="0 0 16 16" fill-opacity="context-fill-opacity">
<metadata><rdf:RDF xmlns:rdf="http://www.w3.org/1999/02/22-rdf-syntax-ns#"><rdf:Description rdf:about="" xmlns:dc="http://purl.org/dc/elements/1.1/" xmlns:Iptc4xmpCore="http://iptc.org/std/Iptc4xmpCore/1.0/xmlns/"><dc:creator><rdf:Seq><rdf:li>Gregory.K</rdf:li></rdf:Seq></dc:creator><dc:rights><rdf:Alt><rdf:li xml:lang="x-default">Mozilla Public License Version 2.0</rdf:li></rdf:Alt></dc:rights><Iptc4xmpCore:CreatorContactInfo><rdf:Description><Iptc4xmpCore:CiUrlWork>https://github.com/Gregory-K</Iptc4xmpCore:CiUrlWork></rdf:Description></Iptc4xmpCore:CreatorContactInfo></rdf:Description></rdf:RDF></metadata>
<rect fill="context-fill" x="2" y="5" width="12" height="9"/>
<path fill="context-stroke" d="M13.1,5A1,1,0,0,1,14,6v7a1,1,0,0,1-.9,1H2.9A1,1,0,0,1,2,13V6a1,1,0,0,1,.9-1H13m.29-1H2.71A1.8,1.8,0,0,0,1,5.87v7.26A1.8,1.8,0,0,0,2.71,15H13.29A1.8,1.8,0,0,0,15,13.13V5.87A1.8,1.8,0,0,0,13.29,4Z"/><path d="M4.5.5h7m-9,2h11" style="stroke:context-stroke;stroke-linecap:round;stroke-miterlimit:10;"/><path fill="context-stroke" d="M12.72,13H6.07c0-1.33,1.34-2.54,3.37-2.54S12.72,11.67,12.72,13Z"/><path fill="context-stroke" d="M9.39,6.51A1.74,1.74,0,0,0,8.11,7a1.77,1.77,0,0,0-.45,1.33,1.88,1.88,0,0,0,1.73,1.81,1.87,1.87,0,0,0,1.73-1.81A1.71,1.71,0,0,0,10.67,7,1.74,1.74,0,0,0,9.39,6.51ZZ"/>
</svg>
