<svg xmlns="http://www.w3.org/2000/svg" viewBox="0 0 16 16" fill-opacity="context-fill-opacity">
<metadata><rdf:RDF xmlns:rdf="http://www.w3.org/1999/02/22-rdf-syntax-ns#"><rdf:Description rdf:about="" xmlns:dc="http://purl.org/dc/elements/1.1/" xmlns:Iptc4xmpCore="http://iptc.org/std/Iptc4xmpCore/1.0/xmlns/"><dc:creator><rdf:Seq><rdf:li>Gregory.K</rdf:li></rdf:Seq></dc:creator><dc:rights><rdf:Alt><rdf:li xml:lang="x-default">Mozilla Public License Version 2.0</rdf:li></rdf:Alt></dc:rights><Iptc4xmpCore:CreatorContactInfo><rdf:Description><Iptc4xmpCore:CiUrlWork>https://github.com/Gregory-K</Iptc4xmpCore:CiUrlWork></rdf:Description></Iptc4xmpCore:CreatorContactInfo></rdf:Description></rdf:RDF></metadata><path fill="context-fill" d="M13.87,13.75H2.13c0-2.34,2.36-4.49,6-4.49S13.87,11.41,13.87,13.75Z"/><path fill="context-stroke" d="M14.37,14.25H1.63v-.5c0-2.45,2.41-5,6.45-5s6.29,2.57,6.29,5Zm-11.7-1H13.33C13,11.48,11.22,9.76,8.08,9.76S3,11.46,2.67,13.25Z"/><path fill="context-fill" d="M8,2.25A3,3,0,0,0,4.94,5.53,3.34,3.34,0,0,0,8,8.74a3.34,3.34,0,0,0,3.06-3.21A3,3,0,0,0,8,2.25Z"/><path fill="context-stroke" d="M8,9.24A3.82,3.82,0,0,1,4.45,5.57a3.52,3.52,0,0,1,.92-2.72A3.56,3.56,0,0,1,8,1.75a3.55,3.55,0,0,1,2.62,1.1,3.51,3.51,0,0,1,.93,2.72A3.82,3.82,0,0,1,8,9.24ZM8,2.75A2.5,2.5,0,0,0,5.44,5.5,2.82,2.82,0,0,0,8,8.24,2.82,2.82,0,0,0,10.56,5.5,2.51,2.51,0,0,0,8,2.75Z"/></svg>
