<svg xmlns="http://www.w3.org/2000/svg" viewBox="0 0 512 512">
<metadata><rdf:RDF xmlns:rdf="http://www.w3.org/1999/02/22-rdf-syntax-ns#"><rdf:Description rdf:about="" xmlns:dc="http://purl.org/dc/elements/1.1/" xmlns:Iptc4xmpCore="http://iptc.org/std/Iptc4xmpCore/1.0/xmlns/"><dc:creator><rdf:Seq><rdf:li>Gregory.K</rdf:li></rdf:Seq></dc:creator><dc:rights><rdf:Alt><rdf:li xml:lang="x-default">Mozilla Public License Version 2.0</rdf:li></rdf:Alt></dc:rights><Iptc4xmpCore:CreatorContactInfo><rdf:Description><Iptc4xmpCore:CiUrlWork>https://github.com/Gregory-K</Iptc4xmpCore:CiUrlWork></rdf:Description></Iptc4xmpCore:CreatorContactInfo></rdf:Description></rdf:RDF></metadata>
<path d="M429.75,173.18c17,0,30.75,14.76,30.75,33V432.54c0,18.21-13.77,33-30.75,33H82.25c-17,0-30.75-14.76-30.75-33V206.15c0-18.21,13.77-33,30.75-33h347.5m0-45H82.25c-41.77,0-75.75,35-75.75,78V432.54c0,43,34,78,75.75,78h347.5c41.77,0,75.75-35,75.75-78V206.15c0-43-34-78-75.75-78Z" style="fill:#06c"/><path d="M111.21,18.66H400.79m-330.94,63h372.3" style="fill:#06c;stroke:#06c;stroke-linecap:round;stroke-miterlimit:10;stroke-width:30px"/><path d="M426.91,444.45h-237c0-47.21,47.77-90.48,120.15-90.48S426.91,397.24,426.91,444.45Z" style="fill:#06c"/><path d="M308.41,211.58c-17.93,0-34.14,6.72-45.66,18.93s-17.27,29.09-16,47.21c2.63,35.69,30.28,64.78,61.63,64.78s58.94-29.09,61.63-64.77c1.35-17.94-4.36-34.67-16.07-47.11C342.4,218.35,326.22,211.58,308.41,211.58Z" style="fill:#06c"/>
</svg>
