<svg xmlns="http://www.w3.org/2000/svg" viewBox="0 0 16 16" fill-opacity="context-fill-opacity">
<metadata><rdf:RDF xmlns:rdf="http://www.w3.org/1999/02/22-rdf-syntax-ns#"><rdf:Description rdf:about="" xmlns:dc="http://purl.org/dc/elements/1.1/" xmlns:Iptc4xmpCore="http://iptc.org/std/Iptc4xmpCore/1.0/xmlns/"><dc:creator><rdf:Seq><rdf:li>Gregory.K</rdf:li></rdf:Seq></dc:creator><dc:rights><rdf:Alt><rdf:li xml:lang="x-default">Mozilla Public License Version 2.0</rdf:li></rdf:Alt></dc:rights><Iptc4xmpCore:CreatorContactInfo><rdf:Description><Iptc4xmpCore:CiUrlWork>https://github.com/Gregory-K</Iptc4xmpCore:CiUrlWork></rdf:Description></Iptc4xmpCore:CreatorContactInfo></rdf:Description></rdf:RDF></metadata><path fill="context-fill" d="M12.91,13.63H.64c0-2.44,2.47-4.69,6.22-4.69S12.91,11.19,12.91,13.63Z"/><path fill="context-fill" d="M6.77,2.37a3.22,3.22,0,0,0-2.36,1,3.2,3.2,0,0,0-.83,2.44A3.48,3.48,0,0,0,6.77,9.15,3.48,3.48,0,0,0,10,5.8a3.14,3.14,0,0,0-3.2-3.43Z"/><path fill="context-stroke" d="M15.36,13.63H3.09c0-2.44,2.47-4.69,6.22-4.69S15.36,11.19,15.36,13.63Z"/><path fill="context-stroke" d="M9.22,2.37a3.22,3.22,0,0,0-2.36,1A3.2,3.2,0,0,0,6,5.79,3.48,3.48,0,0,0,9.22,9.15a3.48,3.48,0,0,0,3.2-3.35,3.14,3.14,0,0,0-3.2-3.43Z"/></svg>