<svg xmlns="http://www.w3.org/2000/svg" viewBox="0 0 512 512">
<metadata><rdf:RDF xmlns:rdf="http://www.w3.org/1999/02/22-rdf-syntax-ns#"><rdf:Description rdf:about="" xmlns:dc="http://purl.org/dc/elements/1.1/" xmlns:Iptc4xmpCore="http://iptc.org/std/Iptc4xmpCore/1.0/xmlns/"><dc:creator><rdf:Seq><rdf:li>Gregory.K</rdf:li></rdf:Seq></dc:creator><dc:rights><rdf:Alt><rdf:li xml:lang="x-default">Mozilla Public License Version 2.0</rdf:li></rdf:Alt></dc:rights><Iptc4xmpCore:CreatorContactInfo><rdf:Description><Iptc4xmpCore:CiUrlWork>https://github.com/Gregory-K</Iptc4xmpCore:CiUrlWork></rdf:Description></Iptc4xmpCore:CreatorContactInfo></rdf:Description></rdf:RDF></metadata>
<path d="M410.82,446.5H38.92c0-74.08,75-142,188.54-142S410.82,372.42,410.82,446.5Z" style="fill:#e357bb;stroke:#e357bb;stroke-miterlimit:10;stroke-width:60px"/><path d="M224.86,67.08c-28.13,0-53.57,10.54-71.65,29.7s-27.11,45.66-25.07,74.09c4.14,56,47.53,101.65,96.72,101.65s92.49-45.65,96.72-101.64c2.11-28.16-6.85-54.41-25.23-73.93C278.21,77.69,252.81,67.08,224.86,67.08Z" style="fill:#e357bb;stroke:#e357bb;stroke-miterlimit:10;stroke-width:60px"/><path d="M474.08,446.5H102.18c0-74.08,75-142,188.54-142S474.08,372.42,474.08,446.5Z" style="fill:#0a84ff;stroke:#0a84ff;stroke-miterlimit:10;stroke-width:60px"/><path d="M288.12,67.08c-28.14,0-53.57,10.54-71.65,29.7s-27.11,45.66-25.07,74.09c4.14,56,47.53,101.65,96.72,101.65s92.49-45.65,96.72-101.64C387,142.72,378,116.47,359.61,97,341.47,77.69,316.07,67.08,288.12,67.08Z" style="fill:#0a84ff;stroke:#0a84ff;stroke-miterlimit:10;stroke-width:60px"/>
</svg>
