<svg xmlns="http://www.w3.org/2000/svg" viewBox="0 0 512 512" fill="context-fill" fill-opacity="context-fill-opacity" stroke="context-fill" stroke-opacity="context-fill-opacity">
<metadata><rdf:RDF xmlns:rdf="http://www.w3.org/1999/02/22-rdf-syntax-ns#"><rdf:Description rdf:about="" xmlns:dc="http://purl.org/dc/elements/1.1/" xmlns:Iptc4xmpCore="http://iptc.org/std/Iptc4xmpCore/1.0/xmlns/"><dc:creator><rdf:Seq><rdf:li>Gregory.K</rdf:li></rdf:Seq></dc:creator><dc:rights><rdf:Alt><rdf:li xml:lang="x-default">Mozilla Public License Version 2.0</rdf:li></rdf:Alt></dc:rights><Iptc4xmpCore:CreatorContactInfo><rdf:Description><Iptc4xmpCore:CiUrlWork>https://github.com/Gregory-K</Iptc4xmpCore:CiUrlWork></rdf:Description></Iptc4xmpCore:CreatorContactInfo></rdf:Description></rdf:RDF></metadata>
<path d="M405.32,445.71H33.42c0-74.08,75-142,188.54-142S405.32,371.63,405.32,445.71Z" style="fill-opacity:0.5;stroke-opacity:0.5;stroke-miterlimit:10;stroke-width:60px"/><path d="M219.36,66.29c-28.13,0-53.57,10.54-71.65,29.7s-27.11,45.66-25.07,74.09c4.14,56,47.53,101.65,96.72,101.65s92.49-45.65,96.72-101.64c2.11-28.16-6.85-54.41-25.23-73.93C272.71,76.9,247.31,66.29,219.36,66.29Z" style="fill-opacity:0.5;stroke-opacity:0.5;stroke-miterlimit:10;stroke-width:60px"/><path d="M479.58,445.71H107.68c0-74.08,75-142,188.54-142S479.58,371.63,479.58,445.71Z" style="stroke-miterlimit:10;stroke-width:60px"/><path d="M293.62,66.29c-28.14,0-53.57,10.54-71.65,29.7s-27.11,45.66-25.07,74.09c4.14,56,47.53,101.65,96.72,101.65s92.49-45.65,96.72-101.64c2.11-28.16-6.85-54.41-25.23-73.93C347,76.9,321.57,66.29,293.62,66.29Z" style="stroke-miterlimit:10;stroke-width:60px"/>
</svg>
