<!-- This Source Code Form is subject to the terms of the Mozilla Public
   - License, v. 2.0. If a copy of the MPL was not distributed with this
   - file, You can obtain one at http://mozilla.org/MPL/2.0/. -->
<svg xmlns="http://www.w3.org/2000/svg" width="12" height="12" fill="context-fill" fill-opacity="context-fill-opacity" viewBox="0 0 12 12">
    <path d="M 4.875 9 C 5.082031 9 5.25 8.832031 5.25 8.625 L 5.25 4.125 C 5.25 3.917969 5.082031 3.75 4.875 3.75 C 4.667969 3.75 4.5 3.917969 4.5 4.125 L 4.5 8.625 C 4.5 8.832031 4.667969 9 4.875 9 Z M 6.375 9 C 6.582031 9 6.75 8.832031 6.75 8.625 L 6.75 4.125 C 6.75 3.917969 6.582031 3.75 6.375 3.75 C 6.167969 3.75 6 3.917969 6 4.125 L 6 8.625 C 6 8.832031 6.167969 9 6.375 9 Z M 7.875 9 C 8.082031 9 8.25 8.832031 8.25 8.625 L 8.25 4.125 C 8.25 3.917969 8.082031 3.75 7.875 3.75 C 7.667969 3.75 7.5 3.917969 7.5 4.125 L 7.5 8.625 C 7.5 8.832031 7.667969 9 7.875 9 Z M 7.875 9 "/>
    <path d="M 10.5 1.5 L 8.210938 1.5 C 8.035156 0.625 7.265625 0 6.375 0 C 5.484375 0 4.714844 0.625 4.539062 1.5 L 2.25 1.5 C 1.835938 1.5 1.5 1.835938 1.5 2.25 C 1.5 2.664062 1.835938 3 2.25 3 L 2.25 9.75 C 2.25 10.992188 3.257812 12 4.5 12 L 8.25 12 C 9.492188 12 10.5 10.992188 10.5 9.75 L 10.5 3 C 10.914062 3 11.25 2.664062 11.25 2.25 C 11.25 1.835938 10.914062 1.5 10.5 1.5 Z M 6.375 0.75 C 6.847656 0.753906 7.261719 1.054688 7.417969 1.5 L 5.332031 1.5 C 5.488281 1.054688 5.902344 0.753906 6.375 0.75 Z M 9 9.75 C 9 10.164062 8.664062 10.5 8.25 10.5 L 4.5 10.5 C 4.085938 10.5 3.75 10.164062 3.75 9.75 L 3.75 3 L 9 3 Z M 9 9.75 "/>
</svg>