<!-- This Source Code Form is subject to the terms of the Mozilla Public
   - License, v. 2.0. If a copy of the MPL was not distributed with this
   - file, You can obtain one at http://mozilla.org/MPL/2.0/. -->
<svg xmlns="http://www.w3.org/2000/svg" width="12" height="12" viewBox="0 0 12 12" fill="context-fill" fill-opacity="context-fill-opacity">
    <path d="M 3.5 3.5 C 3.792969 3.207031 4.269531 3.207031 4.5625 3.5 L 8.5 7.441406 C 8.792969 7.734375 8.792969 8.207031 8.5 8.5 C 8.207031 8.792969 7.734375 8.792969 7.441406 8.5 L 3.5 4.5625 C 3.207031 4.269531 3.207031 3.792969 3.5 3.5 Z M 3.5 3.5"/>
    <path d="M 1.765625 3.390625 L 3.363281 1.792969 C 3.433594 1.722656 3.53125 1.679688 3.628906 1.679688 C 3.730469 1.679688 3.828125 1.722656 3.898438 1.792969 L 6.289062 4.183594 L 6.300781 4.171875 C 6.882812 3.589844 6.882812 2.644531 6.300781 2.058594 L 4.703125 0.460938 C 4.117188 -0.121094 3.171875 -0.121094 2.589844 0.460938 L 0.460938 2.589844 C -0.121094 3.171875 -0.121094 4.117188 0.460938 4.703125 L 2.058594 6.300781 C 2.636719 6.878906 3.570312 6.886719 4.15625 6.316406 L 1.765625 3.925781 C 1.695312 3.855469 1.652344 3.757812 1.652344 3.660156 C 1.652344 3.558594 1.695312 3.460938 1.765625 3.390625 Z M 1.765625 3.390625"/>
    <path d="M 11.5625 7.320312 L 9.964844 5.722656 C 9.378906 5.140625 8.433594 5.140625 7.847656 5.722656 L 7.839844 5.734375 L 10.230469 8.125 C 10.300781 8.195312 10.339844 8.292969 10.339844 8.390625 C 10.339844 8.492188 10.300781 8.589844 10.230469 8.660156 L 8.632812 10.257812 C 8.5625 10.328125 8.464844 10.367188 8.363281 10.367188 C 8.265625 10.367188 8.167969 10.328125 8.097656 10.257812 L 5.707031 7.867188 C 5.136719 8.453125 5.144531 9.390625 5.722656 9.96875 L 7.320312 11.5625 C 7.902344 12.144531 8.847656 12.144531 9.433594 11.5625 L 11.558594 9.4375 C 12.144531 8.851562 12.144531 7.90625 11.5625 7.320312 Z M 11.5625 7.320312"/>
</svg>
