<!-- This Source Code Form is subject to the terms of the Mozilla Public
   - License, v. 2.0. If a copy of the MPL was not distributed with this
   - file, You can obtain one at http://mozilla.org/MPL/2.0/. -->
<svg xmlns="http://www.w3.org/2000/svg" width="12" height="12" viewBox="0 0 12 12">
    <path fill="context-fill" d="M 11.054688 9.078125 L 7.339844 1.648438 C 7.085938 1.140625 6.566406 0.820312 6 0.820312 C 5.433594 0.820312 4.914062 1.140625 4.660156 1.648438 L 0.945312 9.082031 C 0.710938 9.546875 0.738281 10.097656 1.011719 10.539062 C 1.285156 10.980469 1.765625 11.25 2.285156 11.25 L 9.714844 11.25 C 10.234375 11.25 10.71875 10.980469 10.992188 10.539062 C 11.265625 10.097656 11.289062 9.542969 11.054688 9.078125 Z M 5.25 3.75 C 5.25 3.335938 5.585938 3 6 3 C 6.414062 3 6.75 3.335938 6.75 3.75 L 6.75 6.75 C 6.75 7.164062 6.414062 7.5 6 7.5 C 5.585938 7.5 5.25 7.164062 5.25 6.75 Z M 6 9.9375 C 5.480469 9.9375 5.0625 9.519531 5.0625 9 C 5.0625 8.480469 5.480469 8.0625 6 8.0625 C 6.519531 8.0625 6.9375 8.480469 6.9375 9 C 6.9375 9.519531 6.519531 9.9375 6 9.9375 Z M 6 9.9375"></path>
</svg>